<svg width="96" height="96" viewBox="0 0 96 96" fill="none" xmlns="http://www.w3.org/2000/svg">
<rect width="96" height="96" rx="24" fill="url(#paint0_linear_2460_5843)"/>
<g clip-path="url(#clip0_2460_5843)">
<path opacity="0.5" d="M87.3033 31.8061L79.2016 38.0091C77.306 35.4979 74.6882 33.634 71.7034 32.6706C68.7186 31.7071 65.5113 31.6908 62.517 32.6237C59.5226 33.5566 56.8861 35.3936 54.9653 37.8854C53.0445 40.3772 51.9324 43.4031 51.78 46.5524C51.6276 49.7018 52.4422 52.822 54.1133 55.4897C55.7844 58.1574 58.231 60.2433 61.1212 61.4643C64.0113 62.6854 67.205 62.9824 70.2687 62.3152C73.3324 61.6479 76.1179 60.0486 78.2469 57.7344L85.7186 64.6929C82.1703 68.5492 77.5284 71.2142 72.4228 72.3261C67.3171 73.4381 61.995 72.9433 57.1785 70.9088C52.3621 68.8743 48.2844 65.3987 45.499 60.9534C42.7135 56.5082 41.3551 51.3087 41.608 46.0603C41.8609 40.812 43.7129 35.769 46.9127 31.6156C50.1125 27.4621 54.5052 24.3994 59.4947 22.843C64.4842 21.2865 69.8289 21.3118 74.8037 22.9152C79.7785 24.5186 84.1424 27.6226 87.3033 31.8061Z" fill="white"/>
<path opacity="0.5" d="M2.55376 37.3471L11.9849 41.2419C13.1659 38.3256 15.2122 35.8477 17.8459 34.1446C20.4797 32.4415 23.5734 31.5956 26.7072 31.7217C29.841 31.8478 32.8631 32.9398 35.3634 34.8496C37.8637 36.7593 39.721 39.3943 40.6833 42.3969C41.6457 45.3995 41.6664 48.6242 40.7427 51.6335C39.819 54.6428 37.9956 57.2909 35.5199 59.2184C33.0443 61.1458 30.0364 62.2593 26.9043 62.4077C23.7723 62.5562 20.6678 61.7323 18.0123 60.048L12.5962 68.7032C17.0217 71.5097 22.1952 72.8825 27.4147 72.6351C32.6341 72.3878 37.6468 70.5324 41.7726 67.3206C45.8984 64.1088 48.9375 59.6962 50.4776 54.6815C52.0176 49.6669 51.984 44.2929 50.3814 39.2889C48.7787 34.2848 45.6846 29.8929 41.5188 26.7092C37.3531 23.5255 32.3174 21.704 27.0951 21.492C21.8727 21.28 16.7166 22.6877 12.3264 25.524C7.93609 28.3604 4.52424 32.4881 2.55376 37.3471Z" fill="white"/>
<rect x="29.1329" y="46.9772" width="24.5834" height="24.5834" rx="2.97465" transform="rotate(-45 29.1329 46.9772)" fill="white"/>
</g>
<defs>
<linearGradient id="paint0_linear_2460_5843" x1="1.43051e-06" y1="96" x2="107.885" y2="79.9647" gradientUnits="userSpaceOnUse">
<stop stop-color="#DC1FFF"/>
<stop offset="1" stop-color="#4E6ABE"/>
</linearGradient>
<clipPath id="clip0_2460_5843">
<rect width="66" height="66" fill="white" transform="translate(15 15)"/>
</clipPath>
</defs>
</svg>
